# xmcd
#
# Track frame offsets: 
#        150
#        13964
#        27220
#        41368
#        60087
#        76362
#        87786
#        102998
#        123213
#        137504
#        149162
#        161278
#        180130
#        203405
#
# Disc length: 2929 seconds
#
# Revision: 0
# Processed by: cddbd v1.5.1PL2 Copyright (c) Steve Scherf et al.
# Submitted via: ExactAudioCopy v0.95a5
#
DISCID=a20b6f0e
DTITLE=Daniel O'Donnell - Encore Disk 2
DYEAR=2005
DGENRE=Ballad
TTITLE0=Just Someone I Used To Know
TTITLE1=Bye Bue Love
TTITLE2=Have You Ever Been Lonely
TTITLE3=Making Plans
TTITLE4=Blue Side Of Lonesome
TTITLE5=He'll Have To Go
TTITLE6=Thank You For Loveing Me
TTITLE7=My Donegal Shore
TTITLE8=Crazy
TTITLE9=Moonlight And Roses
TTITLE10=Medley' Open Up You Heart/Love'
TTITLE11=Nobody's Child
TTITLE12=Medley' Red River Valley/Don't Fence
TTITLE13=My Shoes Keep Walking Back To You
EXTD=
EXTT0=
EXTT1=
EXTT2=
EXTT3=
EXTT4=
EXTT5=
EXTT6=
EXTT7=
EXTT8=
EXTT9=
EXTT10=
EXTT11=
EXTT12=
EXTT13=
PLAYORDER=
